<svg width="35" height="36" viewBox="0 0 35 36" fill="none" xmlns="http://www.w3.org/2000/svg">
<path d="M25.6857 19.2718L34.822 28.6692L30.1977 33.4257C29.3916 34.251 28.4342 34.9035 27.381 35.3453C26.3279 35.7872 25.1999 36.0096 24.0626 35.9997C13.4927 35.9997 0.000307532 22.1218 0.000307532 11.2499C-0.0093142 10.0801 0.206929 8.91988 0.6365 7.83664C1.06607 6.7534 1.70042 5.76864 2.50278 4.93946L7.12711 0.182998L16.2635 9.58042L10.2479 15.7679C12.0371 20.139 15.4132 23.6201 19.6584 25.4713L25.6857 19.2718ZM31.3965 0H24.7917V2.99997H30.0635L21.8751 11.4299L23.9372 13.5509L32.0833 5.16445V10.4999H35V3.74997C35.0046 2.76148 34.6278 1.81146 33.9522 1.10842C33.2766 0.405378 32.3575 0.00674263 31.3965 0Z" fill="black"/>
</svg>
